<?xml version="1.0" encoding="utf-8"?>
<!-- Generator: Adobe Illustrator 22.0.0, SVG Export Plug-In . SVG Version: 6.00 Build 0)  -->
<svg version="1.1" id="Layer_1" xmlns="http://www.w3.org/2000/svg" xmlns:xlink="http://www.w3.org/1999/xlink" x="0px" y="0px"
	 viewBox="0 0 512 512" style="enable-background:new 0 0 512 512;" xml:space="preserve">
<style type="text/css">
	.st0{fill:#FFFFFF;}
</style>
<path class="st0" d="M470.9,28.8C449.4-12,412.6,3.6,412.6,3.6L197.3,82.9C161.2,96.2,169,133,169,133v235.7
	c-19.3-12.3-39.4-10.5-39.4-10.5c-118.7,30-83.7,125-83.7,125c24.9,45.5,85,21.5,85,21.5c57.9-24.4,61.6-84.1,61.6-84.1l0.1-216.2
	l256.2-93.1l1.2,154.4c-58.5-30-106.9,26-106.9,26c-57.4,74.7,13.2,113.2,13.2,113.2c83.8,20.5,116.4-80.8,116.4-80.8l0.7-246.8
	C473.3,49.7,470.9,28.8,470.9,28.8z M146.4,465.9c0,0-54.9,45.5-81.2,3.3c0,0-16.7-37.9,34.2-76.7c0,0,36.1-21.8,61.2,0
	C160.6,392.5,182.5,426.7,146.4,465.9z M448.7,86.2L193,180.3l-0.7-52.7c0,0-4.5-16.6,21.1-25.6l198.3-73c0,0,35.4-12.7,37,12V86.2z
	 M427.9,362.5c0,0-54.9,45.5-81.2,3.3c0,0-16.7-37.9,34.2-76.7c0,0,36.1-21.8,61.2,0C442.1,289.2,464,323.4,427.9,362.5z"/>
</svg>
