<?xml version="1.0" encoding="utf-8"?>
<!-- Generator: Adobe Illustrator 22.0.0, SVG Export Plug-In . SVG Version: 6.00 Build 0)  -->
<svg version="1.1" xmlns="http://www.w3.org/2000/svg" xmlns:xlink="http://www.w3.org/1999/xlink" x="0px" y="0px"
	 viewBox="0 0 1000 1000" style="enable-background:new 0 0 1000 1000;" xml:space="preserve">
<style type="text/css">
	.st0{fill:#D6CC6B;}
	.st1{fill:#FFFFFF;}
</style>
<g id="gold">
	<path class="st0" d="M786.4,327.6l-68.1-91.3c-18-18-39.8-16.7-39.8-16.7H528c-9,0-10.3,3.9-10.3,3.9l-24.4,32.1
		c-3.9,3.9-3.9,9-3.9,9v28.3c0,6.4,11.6,6.4,11.6,6.4l155.5,1.3c11.6-1.3,15.4,5.1,15.4,5.1l36,47.6c7.7,7.7,1.3,14.1,1.3,14.1
		l-48.8,63c-6.4,7.7,0,14.1,0,14.1l43.7,38.6c10.3,9,18,0,18,0l63-82.3c9-11.6,11.6-24.4,11.6-24.4v-28.3
		C796.7,339.1,786.4,327.6,786.4,327.6z M758.1,381.6l-45,59.1c0,0-2.6,3.9-5.1,1.3l-5.1-2.6c0,0-2.6-3.9,0-6.4l46.3-61.7
		c0,0,7.7-6.4,0-12.9l-60.4-84.8c0,0-6.4-7.7-18-7.7H529.3c0,0-1.3-1.3,0-3.9l7.7-9h137.5c0,0,18,0,20.6,7.7l66.8,88.7
		C762,349.4,773.5,364.9,758.1,381.6z"/>
</g>
<g id="white">
	<path class="st1" d="M791.5,571.8L663,461.2c-15.4-14.1-41.1-15.4-41.1-15.4H490.8c-14.1,0-11.6-12.9-11.6-12.9V229.9
		c0-10.3-11.6-10.3-11.6-10.3h-54c-15.4,0-14.1,12.9-14.1,12.9v506.4c1.3,33.4,45,50.1,45,50.1h237.8c30.8,0,45-20.6,45-20.6
		l63-102.8C824.9,605.2,791.5,571.8,791.5,571.8z M718.3,634.8l-42.4,61.7c0,0-2.6,12.9-18,12.9H488.2c0,0-10.3,0-10.3-10.3V535.8
		c0,0,0-9,9-9h123.4c0,0,9,2.6,12.9,6.4l95.1,82.3C718.3,615.5,728.5,627.1,718.3,634.8z"/>
	<path class="st1" d="M363.5,271L208,213.2c-7.7-1.3-9,5.1-9,5.1v54c0,7.7,7.7,9,7.7,9l161.9,59.1c5.1,1.3,6.4-6.4,6.4-6.4v-52.7
		C375.1,274.9,363.5,271,363.5,271z M344.2,304.4l-113.1-43.7c0,0-3.9-1.3-3.9-3.9v-5.1c0,0-1.3-3.9,6.4-2.6l108,41.1
		c0,0,6.4,0,6.4,5.1v6.4C348.1,301.9,349.4,305.7,344.2,304.4z"/>
	<path class="st1" d="M375.1,516.5v-45c0-9-14.1-15.4-14.1-15.4l-153-55.3c-7.7-2.6-9,6.4-9,6.4v48.8c0,11.6,10.3,14.1,10.3,14.1
		l87.4,24.4l-82.3,29.6c-14.1,2.6-15.4,12.9-15.4,12.9v47.6c0,12.9,11.6,7.7,11.6,7.7l155.5-59.1
		C377.7,531.9,375.1,516.5,375.1,516.5z M344.2,512.7l-111.8,43.7c0,0-5.1,1.3-5.1-2.6v-3.9c0,0,0-3.9,3.9-3.9l101.5-39.8l2.6-1.3
		c0,0,2.6-1.3,2.6-5.1v-11.6c0,0,0-3.9-5.1-3.9l-102.8-38.6l-2.6-1.3v-5.1c0,0,1.3-3.9,5.1-2.6L341.7,478c0,0,6.4,1.3,6.4,7.7v21.9
		C348.1,507.5,349.4,511.4,344.2,512.7z"/>
	<path class="st1" d="M375.1,705.5v-48.8c0-7.7-7.7-5.1-7.7-5.1l-20.6,7.7l-141.4,54c-5.1,2.6-6.4,7.7-6.4,7.7v54
		c0,10.3,9,5.1,9,5.1l158.1-59.1C377.7,717,375.1,705.5,375.1,705.5z M348.1,697.7c0,0,0,2.6-3.9,3.9L231.1,744c0,0-3.9,1.3-3.9-2.6
		V735c0,0,0-3.9,5.1-5.1L343,690c0,0,5.1-1.3,5.1,1.3V697.7z"/>
</g>
</svg>
